<svg 
  xmlns="http://www.w3.org/2000/svg" 
  viewBox="0 0 1080 1080"
  width="37"
  >
  <path d="M959.107,535.66q-.01,144.772-.069,289.544c-.036,23.648-3.515,46.962-28.765,56.821-14.327,5.6-30.46,8.007-45.955,8.94-117.4,7.075-234.869,13.174-352.283,20.111-61.119,3.611-122.254,7.408-183.23,12.831-38.615,3.434-67.451-8.076-90.5-40.652-31.549-44.584-66.061-87.1-99.985-129.967-21.745-27.477-31.705-57.42-31.476-93.03,1.051-163.2.461-326.412.47-489.62,0-5.963-.187-11.947.217-17.887,2.32-34.048,20.4-52.473,54.506-54.91,77.835-5.563,155.7-10.691,233.533-16.311,81.6-5.892,163.28-10.988,244.71-18.713,45.223-4.29,84.5,3.157,121.579,31.833,47.861,37.014,98.742,70.156,148.734,104.365,19.842,13.577,29.5,29.671,29.1,55.244C958.231,348.039,959.114,441.857,959.107,535.66Zm-57.8,4.174q0-125.2-.063-250.4c-.05-25.172-9.7-33.789-33.45-32.156-63.224,4.347-126.446,8.79-189.711,12.468-113.046,6.572-226.125,12.571-339.185,18.894-33.687,1.884-39.4,7.956-39.406,41.175q-.019,242.271,0,484.542c0,35.282,12.9,46.369,47.911,43.842q96.431-6.96,192.967-12.414c106.564-6.065,213.165-11.465,319.734-17.434,33.538-1.879,41.168-10.529,41.187-44.619Q901.363,661.783,901.311,539.834ZM838.055,199.922q1.05-2.084,2.1-4.165c-3.78-3.489-7.255-7.4-11.391-10.394-21.9-15.86-45.186-30.057-65.669-47.551-27.557-23.535-58.224-31.414-93.392-27.49-25.3,2.823-50.723,4.6-76.122,6.428q-166.216,11.977-332.451,23.7c-15.14,1.076-30.362,1.473-45.39,3.4-4.658.6-9.4,4.661-12.812,8.335-1.02,1.1,1.4,7.427,3.829,9.377,24.468,19.626,48.912,39.318,74.078,58.029,23.564,17.519,50.989,11.211,77.171,9.716q182.646-10.431,365.243-21.7C761.533,205.289,799.787,202.5,838.055,199.922Z"/><path d="M499.253,484.99V731.084l50.255,12.826c.326,17.352-11.373,26.529-25.278,27.911-43.5,4.322-87.243,6.2-130.713,9.014-3.238-17.537,1.489-25.157,17.668-29.055,28.335-6.826,23.42-4.357,23.475-30.855.2-95.96-.255-191.923.427-287.878.105-14.844-4.387-19.842-18.891-20.624-8.389-.451-22.761,6.579-24.207-9.919-1.233-14.057,12.494-27.368,27.773-28.684,26.988-2.323,54.449-1.993,80.9-7.049,34.049-6.509,52.593,5.525,70.5,35.18,43.056,71.3,90.841,139.737,136.754,209.306,2.188,3.315,4.718,6.405,9.955,13.462,0-9.373,0-14.009,0-18.646.011-63.974-.266-127.949.268-191.918.112-13.461-1.971-21.612-18-20.974-8.372.334-16.881-2.762-25.115-4.27-1.335-18.518,6.664-30.941,24.172-32.338,38.781-3.1,77.711-4.316,116.222-6.282,5.9,22.7,5.766,22.831-38.454,38.057v18.72c0,110.6-.312,221.2.391,331.792.094,14.767-4.854,22.1-18.4,25.217a98.931,98.931,0,0,0-12.344,4.02c-34.768,13.013-56.8,8.261-77.869-22.315-31.928-46.326-61.614-94.2-92.118-141.5-23.173-35.935-46.124-72.014-69.215-108C505.512,493.322,503.3,490.572,499.253,484.99Z"/>
</svg>