<svg id="Layer_2" data-name="Layer 2" xmlns="http://www.w3.org/2000/svg" viewBox="0 0 1080 1080"><defs><style>.cls-1{fill:#fbfdfd;}</style></defs><title>velog-icon</title><rect x="15.446" y="15.316" width="1051.108" height="1051.108" rx="101.71"/><path class="cls-1" d="M562.614,693.478C621.3,619.536,669.425,548.05,693.135,462.427c13.368-48.276,2.718-87.342-41.879-113.205-23.494-13.625-18.592-24.276-.583-38.241,30.548-23.688,64.055-35.252,102.243-26.3,33.5,7.85,51.5,31.666,53.042,66.968,2.291,52.528-17.722,99.054-41.5,143.8-55.146,103.78-129.108,194.646-199.832,287.73-11.854,15.6-27.876,13.373-43.067,14.669-66.328,5.66-66.553,5.412-78.332-60.355-20.447-114.154-40.961-228.3-60.564-342.6C379.426,376,373.073,366.5,352.24,368.764c-16.659,1.813-33.731,1.189-50.507.026-9.433-.653-24.827,7-25.263-12.185-.342-15.078-5.057-31.218,18.514-36.714,40.905-9.538,80.805-23.342,121.652-33.175,55.283-13.309,73.113-.817,83.08,55.424q29.133,164.38,57.864,328.831C558.512,676.265,559.912,681.476,562.614,693.478Z"/></svg>